<svg xmlns="http://www.w3.org/2000/svg" width="62" height="62" viewBox="0 0 62 62">
  <g id="Group_12" data-name="Group 12" transform="translate(-13642 -2698)">
    <g id="Group_11" data-name="Group 11" transform="translate(12774 1964)">
      <g id="Path_6" data-name="Path 6" transform="translate(868 734)" fill="none">
        <path d="M31,0A31,31,0,1,1,0,31,31,31,0,0,1,31,0Z" stroke="none"/>
        <path d="M 31 2 C 27.08414077758789 2 23.28647994995117 2.7664794921875 19.71250152587891 4.278141021728516 C 16.25944137573242 5.738658905029297 13.15785980224609 7.829948425292969 10.49390029907227 10.49390029907227 C 7.829948425292969 13.15785980224609 5.738658905029297 16.25944137573242 4.278141021728516 19.71250152587891 C 2.7664794921875 23.28647994995117 2 27.08414077758789 2 31 C 2 34.91585922241211 2.7664794921875 38.71352005004883 4.278141021728516 42.28749847412109 C 5.738658905029297 45.74056243896484 7.829948425292969 48.84214019775391 10.49390029907227 51.50609970092773 C 13.15785980224609 54.17005157470703 16.25944137573242 56.2613410949707 19.71250152587891 57.72185897827148 C 23.28647994995117 59.2335205078125 27.08414077758789 60 31 60 C 34.91585922241211 60 38.71352005004883 59.2335205078125 42.28749847412109 57.72185897827148 C 45.74056243896484 56.2613410949707 48.84214019775391 54.17005157470703 51.50609970092773 51.50609970092773 C 54.17005157470703 48.84214019775391 56.2613410949707 45.74056243896484 57.72185897827148 42.28749847412109 C 59.2335205078125 38.71352005004883 60 34.91585922241211 60 31 C 60 27.08414077758789 59.2335205078125 23.28647994995117 57.72185897827148 19.71250152587891 C 56.2613410949707 16.25944137573242 54.17005157470703 13.15785980224609 51.50609970092773 10.49390029907227 C 48.84214019775391 7.829948425292969 45.74056243896484 5.738658905029297 42.28749847412109 4.278141021728516 C 38.71352005004883 2.7664794921875 34.91585922241211 2 31 2 M 31 0 C 48.12083053588867 0 62 13.87916946411133 62 31 C 62 48.12083053588867 48.12083053588867 62 31 62 C 13.87916946411133 62 0 48.12083053588867 0 31 C 0 13.87916946411133 13.87916946411133 0 31 0 Z" stroke="none" fill="#fff"/>
      </g>
      <path id="Icon_ionic-md-arrow-up" data-name="Icon ionic-md-arrow-up" d="M17.334,29.572V11.654L24.4,19.913l1.767-2.139-10.1-11.8-10.1,11.8,1.767,2.064,7.067-8.184V29.572Z" transform="translate(916.479 749.002) rotate(90)" fill="#fff"/>
    </g>
  </g>
</svg>