<svg xmlns="http://www.w3.org/2000/svg" width="179.595" height="60.743" viewBox="0 0 179.595 60.743">
  <path id="Path_7" data-name="Path 7" d="M6.4,0V-13.455H21.762V0H24.3V-28.158H21.762V-15.8H6.4V-28.158H3.861V0ZM31.161-28.158V-9.906C31.239-3.861,34.632.585,41.457.585s10.218-4.446,10.3-10.491V-28.158H49.218V-9.945c-.195,5.109-3.12,8.19-7.761,8.19S33.891-4.836,33.7-9.945V-28.158ZM58.344,0h2.535V-24.336h.078L76.167,0h3.2V-28.158H76.83V-3.393h-.078L61.23-28.158H58.344ZM88.218-2.34V-25.818H92.2c8-.234,12.87,3.432,12.87,11.739,0,7.1-3.237,11.739-11.154,11.739ZM85.683-28.158V0h7.6C102.531,0,107.8-4.758,107.8-14.079s-5.265-14.079-14.508-14.079Zm30.381,12.4V-25.818h5.694c2.691,0,7.761-.39,7.761,5.031,0,4.8-4.446,5.031-8.034,5.031Zm0,2.34h6.981c5.109,0,5.5,1.131,6.084,7.566A22.673,22.673,0,0,0,130.1,0h2.925c-1.131-1.716-.975-3.822-1.482-8.385-.351-3.276-1.131-5.694-4.719-6.279v-.078c3.276-.819,5.421-3,5.421-6.045,0-2.691-.936-4.719-2.886-5.889-2.145-1.326-4.173-1.482-6.63-1.482h-9.2V0h2.535ZM156.039,0V-2.34H141.258V-13.377h13.65v-2.34h-13.65v-10.1h14.2v-2.34H138.723V0Zm7.839-2.34V-25.818h3.978c8-.234,12.87,3.432,12.87,11.739,0,7.1-3.237,11.739-11.154,11.739Zm-2.535-25.818V0h7.605c9.243,0,14.508-4.758,14.508-14.079s-5.265-14.079-14.508-14.079ZM6.4,32V18.545H21.762V32H24.3V3.842H21.762V16.2H6.4V3.842H3.861V32Zm42.276,0V29.66H33.891V18.623h13.65v-2.34H33.891V6.182h14.2V3.842H31.356V32Zm8.5-9.945,6.2-15.873,6.084,15.873ZM53.391,32l2.964-7.6h14l3,7.6h2.769L64.9,3.842H61.932L50.778,32Zm28.353-2.34V6.182h3.978c8-.234,12.87,3.432,12.87,11.739,0,7.1-3.237,11.739-11.154,11.739ZM79.209,3.842V32h7.6c9.243,0,14.508-4.758,14.508-14.079S96.057,3.842,86.814,3.842Zm45.4,20.748c0-9.711-15.912-6.084-15.912-14.079,0-3.432,3.627-4.914,6.552-4.914,2.886,0,6.045.9,6.123,4.368h2.73c-.624-5.421-5.46-6.708-9.165-6.708-4.446,0-8.97,2.691-8.97,7.6,0,6.084,6.942,7.527,11.5,9.048,2.379.78,4.407,2.106,4.407,4.914,0,3.588-3.627,5.421-6.786,5.421-3.783,0-6.981-1.248-7.059-5.577H105.3a8.15,8.15,0,0,0,8.385,7.917C119.34,32.585,124.605,30.713,124.605,24.59Z" transform="translate(-3.861 28.158)" fill="#fff"/>
</svg>
