<svg xmlns="http://www.w3.org/2000/svg" width="86.328" height="38.214" viewBox="0 0 86.328 38.214">
  <path id="Union_1" data-name="Union 1" d="M73.036,33.864h4.832c0,2.208.1,4.063,2.752,4.063A2.309,2.309,0,0,0,83.052,35.3c0-4.161-9.728-4.416-9.728-11.3,0-3.616,1.728-6.5,7.616-6.5,4.7,0,7.041,2.111,6.72,6.943h-4.7c0-1.728-.288-3.487-2.24-3.487a2.25,2.25,0,0,0-2.5,2.464c0,4.384,9.728,4,9.728,11.264,0,5.984-4.384,6.688-8.064,6.688C73.9,41.384,72.78,37.864,73.036,33.864ZM54.8,41V17.9H62.86c6.336,0,7.52,4.225,7.52,11.425,0,3.551.544,11.68-7.712,11.68Zm4.832-3.552h2.336c2.944,0,3.52-2.208,3.52-8,0-4.256,0-8-3.36-8h-2.5ZM47.98,41,46.7,35.88H40.108L38.8,41H34.028l6.4-23.1H46.8L53.068,41Zm-6.912-8.672h4.608L43.34,22.344h-.065ZM20.428,41V17.9H33.036v3.552H25.26v5.7h7.168V30.7H25.26v6.752h8.032V41Zm-8.384,0V30.7H6.508V41H1.676V17.9H6.508v9.248h5.536V17.9h4.832V41Zm2.6-31.365V3.17H16.2V9.71a3.123,3.123,0,0,0,3.48,3.345A3.123,3.123,0,0,0,23.16,9.71V3.17H24.72V9.635c0,3.09-2.1,4.649-5.04,4.649S14.64,12.725,14.64,9.635ZM76.32,14V3.17h4.215c4.815,0,6.45,2.011,6.45,5.55,0,3.33-2.025,5.28-6.225,5.28Zm1.56-1.23h2.94c3.57,0,4.515-2.07,4.515-4.185,0-2.805-1.26-4.185-4.891-4.185H77.88ZM65.61,14V3.17h8.1V4.4H67.17V7.82h6.12V9.05H67.17v3.72h6.72V14Zm-4.05,0c-.285-.765-.45-2.281-.735-3.5-.18-.779-.689-1.335-2.73-1.335H55.08V14H53.52V3.17h5.324c3.345,0,4.1,1.125,4.1,2.866a2.581,2.581,0,0,1-2.475,2.52v.03c1.455.18,1.845.765,2.13,2.595A12.945,12.945,0,0,0,63.21,14ZM55.08,7.94h3.555c1.65,0,2.655-.39,2.655-1.769,0-1.32-.72-1.77-2.625-1.77H55.08ZM40.59,14V3.17H44.8c4.815,0,6.45,2.011,6.45,5.55,0,3.33-2.025,5.28-6.225,5.28Zm1.56-1.23h2.94c3.57,0,4.515-2.07,4.515-4.185,0-2.805-1.26-4.185-4.891-4.185H42.15ZM35.745,14l-6.63-9.24h-.03V14H27.525V3.17h2.13l6.63,9.24h.03V3.17h1.56V14ZM10.14,14V8.96H3.18V14H1.62V3.17H3.18V7.73H10.14V3.17H11.7V14Z" transform="translate(-1.62 -3.17)" fill="#fff"/>
</svg>
